<svg width="45" height="41" viewBox="0 0 45 41" fill="none" xmlns="http://www.w3.org/2000/svg">
<g clip-path="url(#clip0_195_242)">
<path d="M7.0522 39.9168C6.6399 37.5197 6.23958 35.2005 5.83926 32.8753C5.87903 32.8699 5.91934 32.8699 5.95912 32.8753C6.17126 33.628 6.70342 34.099 7.33267 34.5149C9.21268 35.7624 11.4203 36.4245 13.6765 36.4177C15.9327 36.4109 18.1362 35.7354 20.0087 34.4766C20.3478 34.2464 20.6259 33.9252 20.9495 33.6304C21.3319 33.7143 21.357 33.9636 21.2839 34.3495C20.9783 35.9784 20.711 37.6144 20.4258 39.2468C20.3922 39.4362 20.3383 39.622 20.2867 39.8341H21.9024C22.6588 37.7587 22.734 35.4962 22.1169 33.3751C22.0886 33.304 22.0464 33.2393 21.993 33.1846C21.9395 33.1298 21.8757 33.0862 21.8053 33.0563C20.916 32.6967 20.4102 31.8937 20.548 31.0187C20.699 30.0599 21.4349 29.4127 22.4573 29.3899C23.6079 29.3647 24.7598 29.3827 25.9104 29.3827H29.0338V7.68872L28.5041 7.62879C28.4969 7.49455 28.4825 7.35073 28.4825 7.2081C28.4825 5.56367 28.5172 3.91805 28.4717 2.27482C28.4286 0.733469 29.7578 -0.0180295 30.8149 -0.0024482C32.2184 0.0143317 33.1677 0.928834 33.1701 2.31197C33.1701 3.91006 33.1701 5.50814 33.1701 7.10622V7.57845L32.5935 7.65276V29.3851H33.1341C35.2568 29.3851 37.3794 29.3851 39.5033 29.3851C40.8444 29.3851 41.717 30.3439 41.5336 31.5904C41.4965 31.905 41.3703 32.2024 41.1698 32.4477C40.9694 32.6929 40.7031 32.8758 40.4022 32.9748C40.1025 33.0862 39.9959 33.2732 39.9228 33.5489C39.3816 35.6332 39.4785 37.8319 40.2008 39.8605C40.5975 39.8605 41.011 39.8605 41.4258 39.8605C41.7733 39.8605 41.9651 40.0283 41.9651 40.3723C41.9651 40.7163 41.7362 40.8289 41.4293 40.8373C41.3251 40.8373 41.2208 40.8373 41.1153 40.8373H3.52843C3.39419 40.8373 3.25875 40.8445 3.12571 40.8373C2.82967 40.8098 2.65228 40.6576 2.66906 40.3435C2.68584 40.0295 2.87402 39.9276 3.14849 39.9264C4.1361 39.9264 5.12252 39.9264 6.10894 39.9264L7.0522 39.9168ZM28.7306 33.1749V39.8353H30.556V33.1773L28.7306 33.1749ZM33.3139 39.8377V33.1797H31.4873V39.8401L33.3139 39.8377ZM36.1161 39.8377V33.1857H34.2811V39.8413L36.1161 39.8377ZM27.7897 39.8377V33.1833H25.9667V39.8389L27.7897 39.8377ZM39.212 39.8377C38.4797 37.6084 38.4689 35.4031 39.0622 33.1833H37.081V39.8377H39.212ZM23.0099 33.1689C23.6383 35.3534 23.5965 37.6761 22.89 39.8365H24.9887V33.1713L23.0099 33.1689Z" fill="#1A3C91"/>
<path d="M23.2782 22.2561C23.0313 23.7219 22.7988 25.1327 22.559 26.5458C22.4679 27.0899 22.3828 27.6364 22.2714 28.177C22.2562 28.2421 22.2272 28.3031 22.1862 28.3558C22.1453 28.4086 22.0933 28.4518 22.0341 28.4826C20.6318 28.9513 20.4196 29.1203 19.7137 30.4267C18.792 30.0671 18.0021 30.3644 17.2039 30.8845C14.9901 32.3228 11.959 32.2629 9.80634 30.7443C9.01529 30.187 8.22064 29.8622 7.2582 30.2421C7.19446 30.253 7.1291 30.2495 7.06688 30.2319C7.00467 30.2143 6.94718 30.1829 6.89863 30.1402C6.3377 29.6476 5.78277 29.1466 5.24341 28.6313C5.13419 28.5113 5.06325 28.3615 5.03967 28.201C4.70766 26.2737 4.38645 24.344 4.06403 22.4155C4.06198 22.3621 4.06559 22.3087 4.07482 22.2561H23.2782Z" fill="#1A3C91"/>
<path d="M2.58251 19.0535C2.59929 18.8509 2.60049 18.6939 2.62806 18.5309C2.70836 18.0707 3.01879 17.8058 3.49581 17.7818C3.64444 17.7734 3.79426 17.7818 3.94408 17.7818H23.2325C24.3256 17.7818 24.485 17.9232 24.6121 19.0559C24.8098 19.0559 25.0148 19.0559 25.2197 19.0559C26.1786 19.0834 26.8066 19.7187 26.821 20.6775C26.8668 23.1877 26.1953 25.6588 24.8853 27.8006C24.4527 28.5197 24.3112 28.5725 23.3967 28.3651L23.6808 27.9624C25.0908 25.9557 25.8661 23.572 25.9065 21.1198C25.9329 20.0794 25.6752 19.8649 24.5977 20.0207C24.5893 20.1406 24.5821 20.2748 24.5713 20.4043C24.5682 20.6237 24.4824 20.834 24.3311 20.993C24.1798 21.1521 23.9742 21.2483 23.7551 21.2624C23.5912 21.2756 23.4268 21.2792 23.2625 21.2732H3.97763C2.88574 21.2732 2.69757 21.109 2.58011 20.0495C1.6692 19.7834 1.26169 20.0794 1.28806 21.0011C1.4199 25.304 3.23932 28.6899 6.80144 31.1194C6.87575 31.1697 6.95366 31.2141 7.03037 31.2596C7.05746 31.2719 7.08553 31.2819 7.11427 31.2896C7.83341 30.7694 8.29725 30.7646 9.03197 31.2716C11.7959 33.1893 14.9517 33.2468 17.8198 31.4406C18.2213 31.1877 18.6277 30.9983 19.1263 31.1266C19.4211 31.2033 19.5745 31.3459 19.6261 31.6635C19.672 31.988 19.7734 32.3022 19.9257 32.5924C20.0647 32.8381 20.036 33.0179 19.8766 33.1917C19.7205 33.3724 19.543 33.5334 19.348 33.6711C15.7775 36.0922 10.8022 35.9772 7.36957 33.3787C7.11544 33.1779 6.92991 32.9032 6.8386 32.5924C6.81428 32.474 6.76616 32.3617 6.69714 32.2624C6.62812 32.1631 6.53964 32.0788 6.43708 32.0147C2.4267 29.294 0.38794 25.5221 0.420301 20.6584C0.427493 19.7175 1.05435 19.0906 1.99162 19.0571C2.18339 19.0475 2.37756 19.0535 2.58251 19.0535Z" fill="#1A3C91"/>
<path d="M4.17578 16.5857L5.27846 16.0835C5.39832 15.5358 5.72193 15.0348 6.41709 14.9125C7.0775 14.7926 7.5761 15.0707 7.93687 15.6532C8.30722 15.1798 8.76867 15.0108 9.34877 15.1738C9.4075 14.5997 9.63643 14.173 10.2033 14.016C10.7463 13.8662 11.1622 14.0759 11.5218 14.5098C12.157 14.0579 12.7647 14.0735 13.292 14.6368C13.5318 14.5374 13.7571 14.4582 13.9656 14.3504C14.0613 14.2963 14.1364 14.212 14.179 14.1107C14.5122 13.3088 15.1378 12.8845 15.9013 12.9553C16.6912 13.0296 17.2413 13.5761 17.3959 14.4427C17.4042 14.4801 17.415 14.517 17.4283 14.5529L18.2361 14.8574C18.9552 14.1191 19.6336 14.1442 20.306 14.97C20.7663 14.5853 21.2829 14.4726 21.8186 14.7843C22.328 15.0791 22.4179 15.5693 22.3184 16.1027L23.2305 16.6348L23.1934 16.7319H4.22732L4.17578 16.5857Z" fill="#1A3C91"/>
<path d="M15.2413 7.66362C15.2432 8.12417 15.0628 8.56675 14.7394 8.89465C14.416 9.22254 13.9759 9.40909 13.5154 9.41352C12.5697 9.42071 11.7463 8.62007 11.7511 7.69479C11.7484 7.46301 11.7919 7.23301 11.8792 7.01827C11.9665 6.80353 12.0957 6.60835 12.2593 6.44417C12.4229 6.27999 12.6177 6.15009 12.8321 6.0621C13.0466 5.9741 13.2764 5.92977 13.5082 5.9317C13.7361 5.93027 13.962 5.97408 14.1728 6.0606C14.3837 6.14711 14.5752 6.27461 14.7365 6.43571C14.8977 6.5968 15.0253 6.78828 15.1119 6.99906C15.1986 7.20984 15.2426 7.43573 15.2413 7.66362Z" fill="#1A3C91"/>
<path d="M7.7995 13.7655C7.5718 13.7676 7.34599 13.7242 7.13526 13.638C6.92454 13.5517 6.73315 13.4242 6.5723 13.263C6.41146 13.1018 6.2844 12.9102 6.19856 12.6993C6.11271 12.4884 6.06981 12.2625 6.07237 12.0348C6.06822 11.5747 6.24694 11.1318 6.56923 10.8034C6.89153 10.4751 7.33102 10.2881 7.79111 10.2837C8.02277 10.2834 8.25222 10.3288 8.46629 10.4174C8.68035 10.506 8.87481 10.636 9.03851 10.7999C9.20221 10.9638 9.33192 11.1584 9.42021 11.3726C9.5085 11.5868 9.55363 11.8163 9.55299 12.048C9.55065 12.2759 9.50343 12.5011 9.41403 12.7108C9.32464 12.9204 9.19482 13.1104 9.03199 13.2699C8.86916 13.4294 8.67651 13.5553 8.46503 13.6403C8.25356 13.7253 8.02741 13.7679 7.7995 13.7655Z" fill="#1A3C91"/>
<path d="M19.3198 9.51415C19.5474 9.50954 19.7737 9.55014 19.9855 9.6336C20.1974 9.71705 20.3905 9.8417 20.5538 10.0003C20.7171 10.159 20.8474 10.3484 20.9369 10.5577C21.0265 10.767 21.0737 10.992 21.0757 11.2197C21.0807 11.4511 21.0393 11.6812 20.954 11.8964C20.8687 12.1116 20.7412 12.3075 20.579 12.4727C20.4169 12.6379 20.2233 12.769 20.0097 12.8582C19.7961 12.9474 19.5669 12.9931 19.3354 12.9924C18.8765 12.9818 18.4392 12.7952 18.114 12.4713C17.7887 12.1474 17.6004 11.7109 17.5879 11.2521C17.5895 10.7927 17.7722 10.3524 18.0965 10.027C18.4208 9.7016 18.8604 9.5173 19.3198 9.51415Z" fill="#1A3C91"/>
<path d="M43.9296 40.7739C43.7354 40.7739 43.5424 40.7739 43.3495 40.7739C43.0582 40.7667 42.864 40.5834 42.924 40.3281C42.9568 40.2255 43.0134 40.1322 43.0893 40.0557C43.1651 39.9793 43.258 39.9219 43.3602 39.8882C43.7569 39.8208 44.1621 39.8208 44.5588 39.8882C44.6617 39.9235 44.7547 39.9828 44.8301 40.0612C44.9056 40.1395 44.9613 40.2347 44.9927 40.3389C45.0502 40.5989 44.8429 40.7691 44.5552 40.7739C44.3455 40.7775 44.1369 40.7751 43.9296 40.7739Z" fill="#1A3C91"/>
<path d="M0.789559 40.7786C0.470742 40.763 0.0452515 40.8721 0.00210332 40.3316C-0.0254636 39.9936 0.216647 39.8629 0.805141 39.8629C1.44158 39.8629 1.65252 39.9828 1.64413 40.3423C1.63215 40.6791 1.44397 40.7786 0.789559 40.7786Z" fill="#1A3C91"/>
</g>
<defs>
<clipPath id="clip0_195_242">
<rect width="45" height="40.841" fill="white"/>
</clipPath>
</defs>
</svg>
