<svg width="69" height="68" viewBox="0 0 69 68" fill="none" xmlns="http://www.w3.org/2000/svg">
<g clip-path="url(#clip0_159_300)">
<path d="M2.2627 68C2.38872 67.8521 2.52324 67.7116 2.66557 67.5794C10.73 60.8862 18.7968 54.1948 26.866 47.5052C27.0169 47.3792 27.1784 47.262 27.3328 47.1502C31.3597 50.6997 36.9466 50.5933 40.8351 47.1378L46.5569 51.8799C52.8525 57.0989 59.1457 62.319 65.4366 67.5403C65.5957 67.6865 65.7463 67.8417 65.8874 68.0053L2.2627 68Z" fill="#1A3C91"/>
<path d="M0 24.4211L25.4339 45.5282C24.1738 46.5771 22.9493 47.5958 21.7318 48.6092C14.6695 54.4682 7.60598 60.3249 0.541296 66.1792C0.370001 66.3065 0.192293 66.425 0.00887157 66.5341L0 24.4211Z" fill="#1A3C91"/>
<path d="M68.1505 66.5448C66.9632 65.5882 65.7653 64.6476 64.5922 63.6768C57.4577 57.7669 50.3267 51.854 43.1994 45.9382C43.0645 45.8264 42.9367 45.7057 42.7344 45.5282L68.1505 24.4211V66.5448Z" fill="#1A3C91"/>
<path d="M10.9538 6.09326H57.2091V6.76412C57.2091 14.4239 57.2091 22.0831 57.2091 29.7418C57.2198 29.9356 57.1819 30.129 57.0989 30.3044C57.0158 30.4799 56.8902 30.6318 56.7335 30.7463C50.807 35.6446 44.8882 40.5547 38.9771 45.4767C35.96 47.9844 32.2331 48.0092 29.1965 45.5015C23.2416 40.5689 17.2956 35.6251 11.3585 30.67C11.1245 30.4607 10.9813 30.1685 10.9592 29.8554C10.9343 22.1068 10.9254 14.3571 10.9325 6.60616C10.9325 6.46063 10.945 6.30978 10.9538 6.09326ZM36.5599 30.4481C37.3798 31.6638 38.0702 32.2104 39.0871 32.3808C41.4174 32.773 43.398 32.0933 44.9438 30.3079C48.3336 26.3786 48.6708 20.4332 45.6963 16.1224C42.5373 11.5346 37.985 10.2053 32.7406 11.0909C26.9851 12.0653 22.9458 15.5065 20.4576 20.6746C17.382 27.0637 20.2713 34.6507 26.7438 37.2383C30.7245 38.8356 34.9076 39.21 39.167 38.5392C42.7414 37.9748 45.8401 36.4894 48.2182 33.6906C48.8057 32.9984 48.8216 32.3045 48.2715 31.8129C47.6893 31.2911 46.9954 31.3923 46.3725 32.1199C44.9855 33.7509 43.1618 34.9521 41.1157 35.5825C36.9574 36.9064 32.8329 36.5675 28.7279 35.3766C26.2633 34.66 24.1773 33.0067 22.9168 30.7709C21.6562 28.5351 21.3214 25.8945 21.9839 23.4148C23.7817 16.6903 31.1718 12.1327 37.9833 13.5472C44.7078 14.9422 47.6113 23.5728 43.0892 28.7302C42.6969 29.2012 42.1928 29.5664 41.6229 29.7924C41.0531 30.0184 40.4357 30.098 39.8272 30.024C38.97 29.9423 38.686 29.5661 38.8742 28.7426C39.0623 27.9191 39.2895 27.1134 39.4598 26.2917C39.9923 23.7591 40.5052 21.2248 40.9932 18.6851C41.1583 17.8279 40.7625 17.2334 40.065 17.1144C39.3143 16.9849 38.7659 17.4286 38.6009 18.2929C38.5494 18.5573 38.4855 18.8253 38.411 19.1625C38.2175 18.9549 38.1022 18.8271 37.9815 18.7011C37.1265 17.8197 36.0135 17.2328 34.8032 17.0251C33.593 16.8174 32.348 16.9998 31.2481 17.5457C27.7589 19.3205 25.4092 23.6526 25.8298 27.5269C26.1049 30.0683 27.8299 31.9975 30.3447 32.427C32.7122 32.8245 34.7479 32.033 36.5599 30.4481Z" fill="#1A3C91"/>
<path d="M59.6602 28.3166V16.4613L67.3732 21.9169L59.6602 28.3166Z" fill="#1A3C91"/>
<path d="M8.49773 16.4596V28.3149L0.784668 21.9258L8.49773 16.4596Z" fill="#1A3C91"/>
<path d="M26.7314 3.54117C28.8878 2.18704 30.5401 0.3626 33.0744 0.0555686C34.7675 -0.148527 36.3577 0.121234 37.7917 1.01748C38.9879 1.76642 40.1113 2.63428 41.398 3.54117H26.7314Z" fill="#1A3C91"/>
<path d="M28.2185 25.903C28.3575 24.6277 28.8008 23.4043 29.5112 22.336C30.2215 21.2677 31.1781 20.3857 32.3004 19.7642C32.9588 19.3819 33.7342 19.2538 34.4806 19.4038C35.227 19.5539 35.8926 19.9718 36.3521 20.5788C36.8491 21.239 37.1756 22.0287 37.5732 22.7635C37.6349 22.8549 37.6648 22.964 37.6583 23.0741C37.3034 24.3164 37.3975 25.6971 36.5119 26.762C35.9191 27.5073 35.2845 28.2183 34.6111 28.8917C33.7237 29.7382 32.6056 30.1074 31.3935 30.1109C29.3863 30.1074 28.1847 28.6965 28.2185 25.903Z" fill="#1A3C91"/>
</g>
<defs>
<clipPath id="clip0_159_300">
<rect width="68.1503" height="68.0083" fill="white" transform="translate(0 -0.00830078)"/>
</clipPath>
</defs>
</svg>
