<svg width="36" height="32" viewBox="0 0 36 32" fill="none" xmlns="http://www.w3.org/2000/svg">
<g clip-path="url(#clip0_196_278)">
<path d="M1.62734 20.5516C1.38133 20.5348 1.13651 20.5037 0.894131 20.4583C0.31166 20.3137 -0.0472614 19.7723 0.00503794 19.1498C0.0267992 18.866 0.151081 18.5998 0.354685 18.4009C0.55829 18.2021 0.827309 18.0841 1.11153 18.0689C1.81398 18.0382 2.51746 18.031 3.22093 18.031C10.2434 18.031 17.2659 18.031 24.2883 18.031C26.3475 18.031 28.4063 18.031 30.4648 18.031C31.6031 18.031 32.7413 18.0454 33.8796 18.0577C34.6528 18.0669 35.1799 18.556 35.1881 19.2626C35.1963 19.9692 34.6826 20.4798 33.9176 20.5168C33.815 20.5168 33.7125 20.5168 33.5597 20.5168V20.9444C33.5597 22.5462 33.5597 24.148 33.5597 25.7508C33.5504 29.2815 30.8606 31.9908 27.3412 31.9939C20.8465 32.0001 14.3484 32.0001 7.84686 31.9939C4.32845 31.9939 1.63452 29.2805 1.62734 25.7528C1.62734 24.1634 1.62734 22.5739 1.62734 20.9844V20.5516ZM23.7366 20.5342C23.7366 20.9864 23.7223 21.3946 23.7366 21.8007C23.7504 22.1036 23.8756 22.3908 24.0881 22.6071C24.3007 22.8234 24.5856 22.9536 24.8882 22.9728C25.4748 23.0158 26.0757 22.5841 26.1537 21.9791C26.2142 21.5074 26.165 21.0213 26.165 20.5342H23.7366Z" fill="#424242"/>
<path d="M29.2955 16.4036H28.8279C25.3495 16.4036 21.8711 16.4036 18.3926 16.4097C18.0778 16.4097 17.8645 16.3595 17.8553 15.9472C17.9906 15.896 18.1506 15.8314 18.3116 15.7719C19.3433 15.3945 20.378 15.0284 21.4024 14.6336C21.652 14.5405 21.8771 14.3918 22.0608 14.1988C22.2348 13.9985 22.3357 13.7451 22.3469 13.4799C22.3581 13.2148 22.2789 12.9538 22.1223 12.7395C21.9695 12.515 21.7457 12.3484 21.4868 12.2664C21.2279 12.1844 20.949 12.1917 20.6948 12.2873C19.576 12.6831 18.4624 13.0954 17.3456 13.5005C17.2431 13.5394 17.1313 13.5753 16.9764 13.6297C16.5119 12.3519 16.0535 11.0855 15.5767 9.78515L18.1404 8.84581C18.5239 8.70532 18.9126 8.57611 19.2899 8.42127C19.9585 8.14644 20.26 7.45834 20.0078 6.81845C19.7647 6.19598 19.091 5.89552 18.4244 6.12728C17.3056 6.52311 16.192 6.93535 15.0762 7.34144C14.9737 7.37938 14.864 7.41425 14.6917 7.47373C14.4169 6.59899 14.0661 5.76528 13.9041 4.8967C13.6713 3.64665 14.4097 2.39351 15.5982 1.93205C17.2164 1.30343 18.8469 0.701478 20.4918 0.148746C21.9787 -0.351687 23.48 0.423574 24.0399 1.9382C24.8254 4.06094 25.5884 6.19188 26.3616 8.31872C27.2886 10.866 28.2153 13.4133 29.1417 15.9606C29.195 16.0929 29.235 16.2241 29.2955 16.4036Z" fill="#424242"/>
<path d="M15.366 16.4035H14.9168C12.589 16.4035 10.2611 16.3974 7.93228 16.4107C7.63284 16.4107 7.48312 16.3379 7.38057 16.0374C6.99294 14.9094 6.5725 13.7814 6.1582 12.639L13.0802 10.1143L15.366 16.4035Z" fill="#424242"/>
<path d="M12.2459 7.79768L5.31474 10.3255C5.01633 9.35333 4.44411 8.46219 4.68612 7.37621C4.9025 6.41124 5.43882 5.70161 6.34534 5.31193C6.95494 5.05051 7.57793 4.82151 8.21171 4.62588C8.86429 4.42097 9.56921 4.46113 10.1943 4.73884C10.8194 5.01655 11.3217 5.51273 11.6071 6.13436C11.8542 6.66555 12.0306 7.22752 12.2459 7.79768Z" fill="#424242"/>
</g>
<defs>
<clipPath id="clip0_196_278">
<rect width="35.1882" height="32" fill="white"/>
</clipPath>
</defs>
</svg>
