<svg width="35" height="36" viewBox="0 0 35 36" fill="none" xmlns="http://www.w3.org/2000/svg">
<g clip-path="url(#clip0_272_19)">
<path d="M11.7617 9.89304H12.2143C17.0634 9.89304 21.9146 9.93883 26.7637 9.87494C29.4257 9.8398 31.385 10.9738 32.8608 13.0757C34.4015 15.2703 34.9968 17.7609 34.9989 20.4101C34.9989 25.1662 34.9989 29.9223 34.9989 34.6784C34.9989 34.7455 35.0213 34.8254 34.9914 34.8754C34.8999 35.033 34.8126 35.2715 34.6795 35.3014C34.5464 35.3312 34.2908 35.2087 34.2024 35.0767C33.883 34.6018 33.6391 34.0843 33.3335 33.603C32.8139 32.7874 32.4615 32.7842 31.944 33.5945C31.5937 34.1407 31.3051 34.7264 30.9537 35.2737C30.449 36.0637 30.0944 36.0637 29.5876 35.2737C29.2362 34.7274 28.9487 34.1418 28.5962 33.5945C28.0809 32.7863 27.7306 32.7905 27.2067 33.6041C26.9554 33.9938 26.7403 34.4069 26.5082 34.8094C26.4358 34.9351 26.3634 35.0628 26.2846 35.1853C25.7064 36.0914 25.3518 36.0914 24.7821 35.1661C24.4765 34.6689 24.2135 34.146 23.9047 33.6509C23.3574 32.7735 22.9996 32.7724 22.447 33.6445C22.2053 34.0257 21.9998 34.4282 21.773 34.8158C21.6564 35.0245 21.5291 35.2271 21.3918 35.4227C20.9659 36.0052 20.6379 36.0158 20.228 35.4163C19.9085 34.9457 19.6423 34.4378 19.357 33.9437C18.6254 32.6798 18.273 32.6745 17.5468 33.9235C17.3338 34.2909 17.1294 34.6689 16.9218 35.033C16.8004 35.246 16.6172 35.4334 16.3819 35.3024C16.3001 35.2473 16.2314 35.1749 16.1808 35.0902C16.1302 35.0055 16.0989 34.9108 16.0891 34.8126C16.072 31.6374 16.055 28.4621 16.0955 25.288C16.1029 24.7225 16.3925 24.1667 16.5097 23.597C17.2902 19.8063 16.8781 16.1988 14.7687 12.883C14.3819 12.2965 13.932 11.7541 13.4271 11.2656C12.933 10.7736 12.3463 10.3711 11.7617 9.89304ZM21.4961 19.9256C21.231 19.9256 20.9637 19.9256 20.7007 19.9256C20.4377 19.9256 20.2961 20.0438 20.2876 20.3047C20.2797 20.358 20.284 20.4125 20.3001 20.4639C20.3162 20.5154 20.3437 20.5626 20.3805 20.602C20.4173 20.6414 20.4626 20.672 20.5129 20.6915C20.5631 20.711 20.6172 20.7189 20.6709 20.7146C21.227 20.7393 21.7839 20.7347 22.3395 20.7008C22.4843 20.6891 22.6951 20.4665 22.726 20.31C22.7718 20.0821 22.5886 19.9267 22.3309 19.9256H21.4961ZM24.4776 20.7189C24.7555 20.7189 25.0462 20.7668 25.3071 20.7008C25.3959 20.6664 25.4755 20.6117 25.5395 20.5411C25.6035 20.4705 25.65 20.3859 25.6755 20.294C25.6925 20.1961 25.4487 19.9544 25.3103 19.9437C24.7566 19.9022 24.1986 19.9235 23.6417 19.9267C23.3872 19.9267 23.2435 20.0619 23.2424 20.3196C23.2414 20.5773 23.3968 20.7072 23.6428 20.7168C23.9175 20.7295 24.1954 20.721 24.4744 20.7199L24.4776 20.7189ZM27.3877 20.7189C27.6656 20.7189 27.9446 20.7189 28.2225 20.7189C28.5004 20.7189 28.658 20.5709 28.6484 20.3025C28.6399 20.0566 28.4834 19.9245 28.2225 19.9256C27.6794 19.9256 27.1353 19.9256 26.5923 19.9256C26.3378 19.9256 26.193 20.0576 26.1898 20.3153C26.1866 20.573 26.3421 20.704 26.587 20.7157C26.8542 20.7295 27.1194 20.7199 27.3845 20.721L27.3877 20.7189ZM30.3691 19.9245H29.5737C29.3235 19.9245 29.1627 20.0374 29.1478 20.2951C29.135 20.5741 29.3001 20.7125 29.5641 20.721C30.1083 20.7285 30.6534 20.7508 31.1933 20.705C31.3413 20.6923 31.5596 20.474 31.5883 20.3217C31.6352 20.0651 31.4339 19.9245 31.1624 19.9277C30.8909 19.9309 30.6279 19.9267 30.3627 19.9267L30.3691 19.9245ZM33.3506 19.9245C33.0727 19.9245 32.7937 19.9245 32.5158 19.9245C32.2624 19.9245 32.1122 20.0523 32.1058 20.3079C32.0997 20.3615 32.1055 20.4159 32.1229 20.4671C32.1402 20.5182 32.1687 20.5649 32.2063 20.6037C32.2439 20.6425 32.2896 20.6725 32.3402 20.6915C32.3908 20.7105 32.4449 20.718 32.4987 20.7136C33.0548 20.7368 33.6117 20.7319 34.1673 20.6987C34.311 20.6859 34.5176 20.458 34.5474 20.3015C34.5921 20.0683 34.4015 19.9235 34.146 19.9235L33.3506 19.9245ZM18.552 20.7221C18.8171 20.7221 19.0844 20.7221 19.3463 20.7221C19.6082 20.7221 19.7882 20.5858 19.7861 20.3175C19.7839 20.0491 19.6114 19.9235 19.3389 19.9256C18.8224 19.9309 18.3049 19.9256 17.7885 19.9256C17.5255 19.9256 17.3434 20.0182 17.336 20.3047C17.3274 20.6124 17.5191 20.7199 17.796 20.7221C18.0483 20.7242 18.2996 20.7221 18.552 20.7221Z" fill="#1A3C91"/>
<path d="M0.993355 20.047C2.25728 21.2971 3.76184 21.9977 5.55284 22.0137C5.77751 22.0137 5.81159 22.1383 5.88506 22.3151C6.15658 22.9731 6.37913 23.6748 6.77949 24.2498C7.74846 25.6436 9.23812 25.6277 10.2326 24.2498C11.2272 22.8719 11.4359 21.3003 11.3273 19.6605C11.2623 18.7022 11.0568 17.7609 10.5627 16.924C10.3318 16.5222 10.0414 16.1578 9.70131 15.8432C8.9453 15.1702 7.97739 15.2107 7.2118 15.8943C6.50051 16.5332 6.1257 17.3627 5.90422 18.2635C5.82756 18.5755 5.69126 18.6234 5.40909 18.6021C3.88962 18.4903 2.71195 17.2764 2.62357 15.6835C2.59162 15.101 2.61079 14.5122 2.61611 13.9308C2.61484 13.8255 2.64089 13.7217 2.69171 13.6295C3.79272 11.8693 5.2121 10.5032 7.30763 10.0411C9.2871 9.60451 11.0142 10.1955 12.5113 11.4892C14.2342 12.9799 15.2117 14.9211 15.7057 17.105C16.4681 20.506 16.1423 23.7866 14.396 26.8511C13.4494 28.5122 12.1525 29.8326 10.288 30.4342C7.94545 31.1923 5.91168 30.5194 4.17924 28.871C2.48195 27.2568 1.58113 25.206 1.16905 22.9358C0.998682 21.9945 0.95609 21.0288 0.849609 20.0736L0.993355 20.047Z" fill="#1A3C91"/>
<path d="M10.5154 19.406V21.2247H10.0043C8.5551 21.2247 7.10697 21.2385 5.65883 21.2247C2.82752 21.1874 0.606348 19.308 0.0899186 16.5321C0.0323686 16.1916 0.00564025 15.8466 0.0100584 15.5014C0.0100584 12.7648 -0.00378399 10.0272 0.0100584 7.29067C0.0260305 4.37524 1.96929 2.11467 4.84532 1.63977C5.09486 1.60282 5.34697 1.58608 5.59921 1.58972C10.0117 1.58972 14.4239 1.58972 18.8358 1.58972C18.9422 1.58972 19.0487 1.59931 19.135 1.60356V3.39776H18.7005C14.408 3.39776 10.1154 3.39776 5.82281 3.39776C3.84974 3.39776 2.33985 4.55626 1.92244 6.3792C1.85451 6.69048 1.82094 7.00827 1.82235 7.32688C1.8149 10.0379 1.80957 12.7478 1.82235 15.4588C1.83087 17.3999 3.03729 18.9215 4.87194 19.3134C5.21155 19.375 5.55654 19.4021 5.90161 19.3943C7.4115 19.4103 8.92565 19.406 10.5154 19.406Z" fill="#1A3C91"/>
<path d="M22.3558 4.96097C22.0298 4.96127 21.7069 4.89683 21.406 4.77139C21.105 4.64595 20.832 4.46201 20.6027 4.23023C20.3734 3.99844 20.1923 3.72344 20.0702 3.42116C19.948 3.11888 19.887 2.79535 19.8908 2.46933C19.8919 2.14331 19.9573 1.82071 20.0834 1.52003C20.2094 1.21935 20.3935 0.946497 20.6252 0.717106C20.8568 0.487714 21.1315 0.306296 21.4334 0.18325C21.7353 0.0602035 22.0585 -0.00205188 22.3846 5.15765e-05C22.7105 0.00157981 23.033 0.0674933 23.3334 0.194006C23.6338 0.320518 23.9063 0.505136 24.1351 0.737256C24.364 0.969376 24.5447 1.24442 24.667 1.5466C24.7892 1.84878 24.8505 2.17213 24.8474 2.49808C24.848 2.82411 24.7838 3.14699 24.6584 3.44795C24.5331 3.74891 24.3491 4.02194 24.1172 4.25113C23.8853 4.48032 23.6102 4.66111 23.3078 4.78298C23.0054 4.90484 22.6818 4.96534 22.3558 4.96097Z" fill="#1A3C91"/>
<path d="M15.2588 27.1013V30.7216H11.6758C13.2389 29.7942 14.3495 28.5633 15.2588 27.1013Z" fill="#1A3C91"/>
</g>
<defs>
<clipPath id="clip0_272_19">
<rect width="35.0086" height="35.87" fill="white"/>
</clipPath>
</defs>
</svg>
