<svg width="31" height="22" viewBox="0 0 31 22" fill="none" xmlns="http://www.w3.org/2000/svg">
<g clip-path="url(#clip0_48_842)">
<path d="M10.3395 18.6988C9.33907 19.3158 8.64388 20.1295 8.26461 21.2056C8.24405 21.264 8.22019 21.3208 8.20126 21.3792C8.10583 21.6803 7.90673 21.8728 7.59246 21.9181C7.27818 21.9633 7.05934 21.8095 6.88492 21.5709C6.49652 21.0531 6.22763 20.4558 6.09759 19.8218C6.04126 19.5303 5.96959 19.2419 5.88286 18.9579C5.75781 18.5523 5.50112 18.3187 5.04945 18.2603C4.22674 18.155 4.23414 18.1344 4.29503 17.3183C4.31066 17.1134 4.30983 16.9069 4.30901 16.7029C4.30901 16.2718 4.30901 16.2578 3.86721 16.2257C3.57089 16.2051 3.27334 16.2101 2.97786 16.2405C2.54265 16.2866 2.39785 16.1262 2.50645 15.6893C2.54654 15.5307 2.57242 15.3688 2.58378 15.2055C2.61505 14.7078 2.39374 14.3557 1.9396 14.1566C1.64836 14.0291 1.35712 13.9024 1.05765 13.7987C0.42087 13.5799 0.101658 13.1208 0.0300824 12.4741C0.0232435 12.3632 0.0486753 12.2526 0.103305 12.1557C2.00377 8.71517 4.79277 6.4017 8.65129 5.46874C9.17453 5.34204 9.72657 5.33135 10.2646 5.25648C10.3609 5.24332 10.4958 5.20465 10.5353 5.13472C10.7583 4.74064 11.1013 4.48807 11.4814 4.27828C12.4687 3.73446 13.5472 3.48271 14.6489 3.34944C17.5201 3.00061 20.3396 3.30007 23.0989 4.14253C23.5531 4.28157 23.9809 4.52591 24.3955 4.7645C24.5549 4.85038 24.6927 4.97137 24.7984 5.11831C24.9042 5.26526 24.9752 5.43432 25.006 5.61272C25.0083 5.64193 25.0176 5.67015 25.0331 5.69499C25.4494 6.14419 25.3894 6.69787 25.3729 7.24086C25.2528 11.1389 25.1384 15.0369 24.9994 18.9341C24.9821 19.4277 24.7839 19.8498 24.2886 20.1287C22.1553 21.3282 19.8575 21.8095 17.4337 21.7741C16.0573 21.7519 14.6818 21.6696 13.3482 21.3092C12.7212 21.1398 12.0836 20.916 11.5316 20.5836C10.402 19.9041 10.3041 19.7395 10.3395 18.6988ZM11.2157 6.63535C11.2058 6.75217 11.1943 6.82951 11.1943 6.90767C11.1762 10.9302 11.1564 14.9521 11.1351 18.9736C11.1292 19.0998 11.1546 19.2255 11.2092 19.3395C11.2637 19.4535 11.3457 19.5522 11.4477 19.6268C12.0738 20.1369 12.7986 20.4495 13.5695 20.6338C15.0742 20.9966 16.6135 21.0945 18.152 21.0583C20.1808 21.0114 22.11 20.5647 23.8904 19.5486C23.9718 19.512 24.04 19.451 24.0855 19.3742C24.131 19.2973 24.1516 19.2082 24.1446 19.1192C24.211 15.0764 24.282 11.0341 24.3577 6.99241C24.3577 6.91013 24.347 6.82786 24.3412 6.74559C23.9965 6.89121 23.6905 7.03683 23.3737 7.15037C22.1866 7.57571 20.9484 7.74848 19.7003 7.85379C17.8704 8.02214 16.0265 7.95745 14.2128 7.66127C13.168 7.4811 12.156 7.2203 11.2157 6.63535ZM10.2589 17.366L10.3691 17.3536C10.4234 13.5461 10.4769 9.73944 10.5337 5.84801C9.87055 5.94838 9.24282 5.98787 8.64142 6.14254C5.25349 7.01956 2.76067 9.07469 0.995127 12.057C0.699774 12.5556 0.84786 12.9184 1.39414 13.1265C1.75269 13.2534 2.10445 13.3987 2.44804 13.5618C3.0807 13.8826 3.40238 14.4092 3.39087 15.1249C3.39087 15.245 3.39087 15.3651 3.39087 15.4902C3.6854 15.5198 3.961 15.533 4.23168 15.5725C4.86845 15.6753 5.02559 15.8571 5.0478 16.512C5.0585 16.8485 5.0478 17.1858 5.0478 17.5215C5.07878 17.5363 5.11066 17.5492 5.14324 17.5601C5.2022 17.5785 5.26242 17.5925 5.32342 17.6021C5.9495 17.6794 6.35756 18.0299 6.55008 18.619C6.68336 19.0303 6.7862 19.4458 6.89644 19.8604C7.03466 20.3796 7.24938 20.8535 7.62948 21.2451C7.66321 21.1134 7.68131 21.0057 7.71833 20.9061C8.09192 19.9028 8.67277 18.9895 9.42299 18.2257C9.61304 18.0307 9.66981 17.8596 9.58754 17.607C9.51761 17.3791 9.40078 17.097 9.71917 16.9645C10.0606 16.8296 10.1478 17.1332 10.2589 17.366ZM17.5193 7.21289C19.3293 7.18657 21.057 7.05905 22.7337 6.5827C23.231 6.43179 23.7115 6.23026 24.1676 5.98129C24.491 5.81181 24.4893 5.56994 24.1849 5.3585C23.8992 5.16043 23.5914 4.99642 23.2676 4.86981C21.8978 4.34327 20.4589 4.12443 19.0092 3.97058C17.1409 3.77313 15.2807 3.79205 13.4469 4.25689C12.7542 4.43706 12.0655 4.64685 11.4979 5.11251C11.1087 5.42925 11.1087 5.69746 11.525 5.96731C11.8419 6.17395 12.1811 6.34423 12.5361 6.47492C14.1659 7.06974 15.8698 7.19562 17.5193 7.21289Z" fill="white"/>
<path d="M30.4416 5.85044C30.3865 5.90474 30.3026 6.05283 30.1816 6.09726C28.9648 6.51684 27.7431 6.91997 26.5206 7.32392C26.3165 7.39138 26.1174 7.3593 26.0483 7.11989C25.9792 6.88048 26.1076 6.75213 26.3215 6.68138C27.5333 6.27825 28.7444 5.87266 29.9579 5.47446C30.2318 5.38232 30.4391 5.51478 30.4416 5.85044Z" fill="white"/>
<path d="M26.2244 4.99156C26.1117 4.89037 25.9554 4.81221 25.9142 4.69456C25.9018 4.62871 25.9046 4.56089 25.9224 4.4963C25.9403 4.4317 25.9726 4.37204 26.0171 4.32187C26.723 3.60941 27.4436 2.91092 28.1627 2.21162C28.3198 2.05859 28.5074 2.00265 28.6802 2.16966C28.839 2.32351 28.8669 2.51849 28.6966 2.68715C27.9781 3.40016 27.2561 4.11153 26.5304 4.82126C26.4622 4.88708 26.3593 4.91752 26.2244 4.99156Z" fill="white"/>
<path d="M25.7727 0.75124C25.6367 1.56455 25.3621 2.34847 24.9607 3.06882C24.9414 3.11163 24.9129 3.14969 24.8773 3.18034C24.8417 3.21099 24.7998 3.23349 24.7546 3.24627C24.7093 3.25904 24.6619 3.26178 24.6155 3.25429C24.5691 3.24681 24.5249 3.22927 24.486 3.20292C24.3042 3.09515 24.2993 2.93801 24.3659 2.74961C24.6012 2.0865 24.8299 1.42093 25.052 0.752886C25.122 0.543095 25.2454 0.376084 25.4634 0.451773C25.6049 0.498668 25.6995 0.674728 25.7727 0.75124Z" fill="white"/>
<path d="M9.87052 16.3276C9.8047 16.3959 9.71832 16.5563 9.59409 16.5934C9.50194 16.6213 9.29133 16.5152 9.25678 16.4231C9.13837 16.1188 9.05984 15.8005 9.02312 15.4761C9.01325 15.3766 9.2107 15.1692 9.31518 15.1676C9.39407 15.1767 9.46958 15.2048 9.53532 15.2493C9.60106 15.2938 9.65509 15.3536 9.69281 15.4235C9.78907 15.6777 9.8047 15.9623 9.87052 16.3276Z" fill="white"/>
<path d="M9.53405 14.0627C9.42874 14.1623 9.34318 14.3096 9.23788 14.326C9.13257 14.3425 8.92278 14.261 8.88822 14.1722C8.76709 13.8586 8.6802 13.5328 8.62907 13.2005C8.61508 13.1059 8.74836 12.9233 8.84791 12.8945C8.94746 12.8657 9.16054 12.9463 9.19838 13.0327C9.33413 13.3462 9.4164 13.6843 9.53405 14.0627Z" fill="white"/>
<path d="M8.62575 9.51399C8.55665 9.59133 8.47602 9.76081 8.37894 9.76986C8.25882 9.78467 8.04492 9.69828 8.00872 9.60532C7.88925 9.30218 7.81174 8.98414 7.77836 8.66002C7.76848 8.55718 7.9429 8.39675 8.0696 8.33834C8.13542 8.3079 8.34274 8.42061 8.37318 8.50288C8.47684 8.8114 8.53608 9.13555 8.62575 9.51399Z" fill="white"/>
<path d="M9.03796 11.9188C8.96556 12.0011 8.88576 12.1656 8.78703 12.1763C8.66774 12.1911 8.45795 12.1055 8.41846 12.0118C8.29971 11.7304 8.22533 11.4323 8.19797 11.1282C8.19057 11.0196 8.37321 10.8476 8.50567 10.7925C8.67021 10.7242 8.78374 10.8451 8.82241 11.0286C8.88164 11.3059 8.95569 11.5823 9.03796 11.9188Z" fill="white"/>
<path d="M8.30076 7.37488C8.21849 7.45715 8.11153 7.63321 8.00376 7.63486C7.92393 7.62908 7.84634 7.6059 7.77641 7.56696C7.70649 7.52802 7.64593 7.47426 7.59898 7.40944C7.50652 7.2498 7.46868 7.06435 7.49121 6.88126C7.5093 6.75209 7.64505 6.56945 7.75776 6.54394C7.87047 6.51844 8.07286 6.62621 8.13868 6.7381C8.23247 6.89524 8.23823 7.10586 8.30076 7.37488Z" fill="white"/>
<path d="M17.7973 5.87347C17.2667 5.77968 16.7336 5.69823 16.2079 5.58305C16.0894 5.55673 15.9948 5.41851 15.8895 5.32801C15.9989 5.23422 16.0943 5.08942 16.2186 5.05487C17.2471 4.76198 18.3369 4.76198 19.3654 5.05487C19.4347 5.07681 19.5003 5.10868 19.5604 5.14948C19.7694 5.28194 19.7801 5.44895 19.5505 5.52875C19.2019 5.64334 18.8441 5.72784 18.481 5.78133C18.2613 5.8167 18.0318 5.78791 17.8072 5.78791L17.7973 5.87347Z" fill="white"/>
</g>
<defs>
<clipPath id="clip0_48_842">
<rect width="30.414" height="21.4925" fill="white" transform="translate(0.0275879 0.432861)"/>
</clipPath>
</defs>
</svg>
